#!OML:ASF H:\Not Pregnant\Project 1\Capture day 1\Session 1\non-pregnant.ASF
:FULLY-SPECIFIED
:DEGREES
248
root -3.36073 16.2896 34.4919 -194.25 -81.5166 -116.223
lowerback 13.0616 3.00785 9.51745
upperback 7.09616 4.49353 1.93456
thorax 0.840907 2.27144 -3.81285
lowerneck 20.3482 -5.64404 -31.1507
upperneck 19.2166 -19.0494 35.1411
head 9.65215 -11.649 20.396
rclavicle -8.11041e-014 -2.78299e-015
rhumerus -30.3872 76.4486 -109.617
rradius 96.1695
rwrist -26.0661
rhand -5.67858 -6.34933
rfingers 7.12502
rthumb 20.1413 -35.3252
lclavicle -8.11041e-014 -2.78299e-015
lhumerus -99.0279 -35.4638 160.238
lradius 85.3482
lwrist 107.698
lhand 6.34698 -9.54121
lfingers 7.12502
lthumb 31.6539 17.7335
rfemur -55.4457 -5.98662 42.4274
rtibia -1.10524e-013
rfoot -0.692634 26.9666
rtoes -15.0446
lfemur -65.8925 6.61882 -10.5221
ltibia 14.6097
lfoot 0.913141 -2.32098
ltoes -18.5882
249
root -3.37403 16.304 34.4951 -193.525 -81.4716 -117.644
lowerback 12.8348 2.99596 9.35193
upperback 6.99106 4.45818 1.92069
thorax 0.829177 2.25204 -3.72352
lowerneck 20.3792 -5.58218 -31.2112
upperneck 19.2259 -19.0314 35.1049
head 9.63904 -11.6636 20.3899
rclavicle -3.73715e-014 -3.45885e-014
rhumerus -31.135 76.5594 -110.404
rradius 96.0769
rwrist -26.1667
rhand -5.26864 -6.85777
rfingers 7.12502
rthumb 20.5353 -35.7917
lclavicle -3.73715e-014 -3.45885e-014
lhumerus -99.0139 -35.334 160.304
lradius 85.4519
lwrist 107.425
lhand 6.06239 -9.58704
lfingers 7.12502
lthumb 31.3828 17.7408
rfemur -54.8264 -6.62385 42.7559
rtibia -2.94201e-014
rfoot -0.76917 27.6884
rtoes -14.6033
lfemur -64.9991 6.60168 -10.7081
ltibia 14.536
lfoot 0.767365 -2.3457
ltoes -18.6458
250
root -3.38817 16.3182 34.498 -192.645 -81.4311 -119.239
lowerback 12.6066 2.97546 9.17632
upperback 6.89371 4.41029 1.88593
thorax 0.826286 2.22746 -3.64896
lowerneck 20.4008 -5.51273 -31.2738
upperneck 19.241 -19.0024 35.0707
head 9.62514 -11.6731 20.3879
rclavicle -4.77083e-014 -1.07344e-014
rhumerus -31.8553 76.6688 -111.208
rradius 95.9765
rwrist -26.2808
rhand -4.90106 -7.18323
rfingers 7.12502
rthumb 20.8885 -36.0786
lclavicle -4.77083e-014 -1.07344e-014
lhumerus -98.9875 -35.1967 160.336
lradius 85.5741
lwrist 107.1
lhand 5.67375 -9.6581
lfingers 7.12502
lthumb 31.0124 17.741
rfemur -54.1975 -7.28225 43.0396
rtibia 7.15625e-015
rfoot -0.822865 28.4127
rtoes -14.1143
lfemur -64.0638 6.58306 -10.9217
ltibia 14.43
lfoot 0.628592 -2.37221
ltoes -18.6933
251
root -3.40307 16.3326 34.5001 -191.549 -81.3991 -121.081
lowerback 12.3825 2.9502 8.96787
upperback 6.81381 4.35189 1.83435
thorax 0.837395 2.19811 -3.57258
lowerneck 20.415 -5.43954 -31.335
upperneck 19.2523 -18.9648 35.0414
head 9.60744 -11.6778 20.3888
rclavicle -4.53229e-014 3.18055e-014
rhumerus -32.492 76.7791 -111.951
rradius 95.884
rwrist -26.3846
rhand -4.61071 -7.35969
rfingers 7.12502
rthumb 21.1674 -36.2241
lclavicle -4.53229e-014 3.18055e-014
lhumerus -98.9449 -35.0648 160.331
lradius 85.7025
lwrist 106.792
lhand 5.26777 -9.73042
lfingers 7.12502
lthumb 30.6253 17.7418
rfemur -53.5476 -7.96949 43.2643
rtibia -8.0309e-014
rfoot -0.841924 29.1386
rtoes -13.5459
lfemur -63.072 6.55832 -11.174
ltibia 14.2901
lfoot 0.495267 -2.40186
ltoes -18.7469
252
root -3.41868 16.3469 34.5015 -190.263 -81.3726 -123.143
lowerback 12.1635 2.91485 8.74082
upperback 6.75206 4.27771 1.75942
thorax 0.864041 2.16193 -3.50855
lowerneck 20.4126 -5.36001 -31.3975
upperneck 19.2653 -18.915 35.019
head 9.58904 -11.6761 20.3961
rclavicle -2.14687e-014 1.63003e-014
rhumerus -33.0118 76.894 -112.619
rradius 95.7901
rwrist -26.4794
rhand -4.39515 -7.46672
rfingers 7.12502
rthumb 21.3745 -36.3078
lclavicle -2.14687e-014 1.63003e-014
lhumerus -98.8741 -34.9418 160.252
lradius 85.8215
lwrist 106.589
lhand 4.97008 -9.76523
lfingers 7.12502
lthumb 30.3414 17.7597
rfemur -53.4163 -8.56182 43.544
rtibia 0.997491
rfoot -1.37283 29.7711
rtoes -12.9309
lfemur -62.0271 6.529 -11.4606
ltibia 14.1207
lfoot 0.366136 -2.43513
ltoes -18.8098
253
root -3.43529 16.361 34.5022 -188.887 -81.3417 -125.32
lowerback 11.9396 2.87855 8.49497
upperback 6.70866 4.19854 1.67613
thorax 0.912061 2.12385 -3.44147
lowerneck 20.4026 -5.28044 -31.4507
upperneck 19.271 -18.8591 35.0018
head 9.56558 -11.6698 20.4032
rclavicle -7.95139e-015 -1.86858e-014
rhumerus -33.3882 77.0058 -113.173
rradius 95.696
rwrist -26.563
rhand -4.40713 -7.37934
rfingers 7.12502
rthumb 21.363 -36.2217
lclavicle -7.95139e-015 -1.86858e-014
lhumerus -98.7829 -34.8289 160.118
lradius 85.9295
lwrist 106.516
lhand 4.8491 -9.74132
lfingers 7.12502
lthumb 30.226 17.8048
rfemur -53.2963 -9.18902 43.7804
rtibia 2.05155
rfoot -1.90926 30.4035
rtoes -12.2455
lfemur -60.9387 6.50191 -11.7644
ltibia 13.9287
lfoot 0.239454 -2.47185
ltoes -18.8702
254
root -3.45345 16.3749 34.5026 -187.471 -81.2945 -127.576
lowerback 11.738 2.84418 8.23984
upperback 6.68341 4.12136 1.58819
thorax 0.967907 2.08656 -3.37501
lowerneck 20.3835 -5.20436 -31.5001
upperneck 19.2695 -18.8026 34.988
head 9.5409 -11.6617 20.4096
rclavicle -1.66979e-014 -1.63003e-014
rhumerus -33.6312 77.1136 -113.608
rradius 95.5962
rwrist -26.6395
rhand -4.22777 -7.44582
rfingers 7.12502
rthumb 21.5352 -36.2686
lclavicle -1.66979e-014 -1.63003e-014
lhumerus -98.6667 -34.7187 159.934
lradius 86.0222
lwrist 106.552
lhand 4.87426 -9.6526
lfingers 7.12502
lthumb 30.25 17.8891
rfemur -52.9703 -9.88776 43.9378
rtibia 2.80199
rfoot -2.26986 31.073
rtoes -11.5124
lfemur -59.7934 6.48555 -12.0774
ltibia 13.7263
lfoot 0.107612 -2.51318
ltoes -18.9056
255
root -3.47275 16.3884 34.503 -186.03 -81.2319 -129.879
lowerback 11.5332 2.83774 7.9336
upperback 6.6774 4.07342 1.54296
thorax 1.04223 2.0613 -3.23754
lowerneck 20.3878 -5.143 -31.5784
upperneck 19.2248 -18.7643 34.9771
head 9.50938 -11.6637 20.4174
rclavicle -4.77083e-015 6.36111e-015
rhumerus -33.7088 77.2037 -113.798
rradius 95.4998
rwrist -26.7076
rhand -4.43208 -7.23367
rfingers 7.12502
rthumb 21.339 -36.0788
lclavicle -4.77083e-015 6.36111e-015
lhumerus -98.5224 -34.6175 159.777
lradius 86.0863
lwrist 106.726
lhand 5.0732 -9.4834
lfingers 7.12502
lthumb 30.4398 18.0233
rfemur -52.5547 -10.6266 44.0423
rtibia 3.42848
rfoot -2.54371 31.7612
rtoes -10.7311
lfemur -58.6167 6.47841 -12.3992
ltibia 13.5211
lfoot -0.0302765 -2.55714
ltoes -18.9306
256
root -3.49319 16.4015 34.5039 -184.671 -81.1593 -132.112
lowerback 11.326 2.85328 7.59956
upperback 6.67978 4.05099 1.53883
thorax 1.12469 2.04647 -3.04374
lowerneck 20.41 -5.10107 -31.6713
upperneck 19.1495 -18.749 34.9577
head 9.47508 -11.6761 20.4148
rclavicle -1.35174e-014 -1.86858e-014
rhumerus -33.7202 77.2668 -113.808
rradius 95.4405
rwrist -26.762
rhand -4.76569 -6.95272
rfingers 7.12502
rthumb 21.0185 -35.8337
lclavicle -1.35174e-014 -1.86858e-014
lhumerus -98.3657 -34.5007 159.661
lradius 86.1537
lwrist 106.859
lhand 5.25332 -9.25422
lfingers 7.12502
lthumb 30.6116 18.2206
rfemur -52.0869 -11.4014 44.1163
rtibia 3.9841
rfoot -2.7597 32.4628
rtoes -9.90839
lfemur -57.422 6.47416 -12.7143
ltibia 13.3163
lfoot -0.170188 -2.60186
ltoes -18.9095
257
root -3.51437 16.414 34.5055 -183.334 -81.0816 -134.321
lowerback 11.1002 2.89165 7.22524
upperback 6.68584 4.05389 1.57832
thorax 1.21746 2.04172 -2.78335
lowerneck 20.4501 -5.07529 -31.7894
upperneck 19.0459 -18.756 34.9319
head 9.44073 -11.6999 20.4075
rclavicle -2.8625e-014 -4.29375e-014
rhumerus -33.6999 77.2941 -113.633
rradius 95.4407
rwrist -26.7967
rhand -4.88869 -6.84762
rfingers 7.12502
rthumb 20.9004 -35.7417
lclavicle -2.8625e-014 -4.29375e-014
lhumerus -98.186 -34.3571 159.594
lradius 86.2139
lwrist 106.919
lhand 5.40023 -9.01801
lfingers 7.12502
lthumb 30.7516 18.4305
rfemur -51.6137 -12.2031 44.1596
rtibia 4.52152
rfoot -2.93075 33.1748
rtoes -9.02204
lfemur -56.2231 6.46919 -13.0329
ltibia 13.1037
lfoot -0.304428 -2.64483
ltoes -18.8711
258
root -3.53609 16.4259 34.5078 -182.071 -81.0076 -136.444
lowerback 10.855 2.93538 6.84566
upperback 6.68274 4.06463 1.63962
thorax 1.31006 2.03977 -2.49742
lowerneck 20.4943 -5.05831 -31.9194
upperneck 18.9362 -18.7756 34.8971
head 9.41002 -11.7298 20.3942
rclavicle 2.22639e-014 -3.53837e-014
rhumerus -33.6943 77.2897 -113.366
rradius 95.4908
rwrist -26.8024
rhand -4.87629 -6.8147
rfingers 7.12502
rthumb 20.9123 -35.7075
lclavicle 2.22639e-014 -3.53837e-014
lhumerus -97.989 -34.164 159.536
lradius 86.2832
lwrist 106.853
lhand 5.46404 -8.79848
lfingers 7.12502
lthumb 30.8125 18.6386
rfemur -51.1682 -13.0302 44.1884
rtibia 5.07407
rfoot -3.07768 33.8941
rtoes -8.08455
lfemur -55.0297 6.4568 -13.3458
ltibia 12.8706
lfoot -0.424508 -2.68684
ltoes -18.8163
